<svg width="999" height="381" viewBox="0 0 999 381" fill="none" xmlns="http://www.w3.org/2000/svg">
<g clip-path="url(#clip0_211_424)">
<path d="M336.776 62.487C380.782 60.0345 415.175 82.534 441.878 119.322C454.374 136.384 451.918 152.485 433.76 163.149C403.212 181.17 372.13 198.231 340.835 214.866C326.843 222.33 309.112 216.465 302.81 203.882C295.333 189.167 300.674 171.786 315.307 163.788C332.183 154.511 349.059 145.341 365.828 136.17C368.071 134.891 371.276 134.358 370.849 130.945C370.528 127.853 367.751 126.787 365.401 125.72C345.107 116.337 324.813 116.763 304.84 126.36C274.933 140.756 260.299 169.44 265.106 202.496C269.165 230.114 294.158 254.427 324.279 259.332C353.866 264.13 376.83 252.507 393.706 228.835C401.396 218.065 410.582 212.413 423.933 213.906C441.023 215.825 452.559 232.78 447.966 249.415C446.257 255.6 443.373 261.144 439.528 266.156C395.095 322.458 325.24 331.416 272.155 301.665C230.072 278.099 208.283 241.311 205.612 194.392C203.156 150.992 222.809 116.337 256.241 89.4652C278.564 71.4442 304.092 61.314 336.669 62.5936L336.776 62.487Z" fill="#0061FF"/>
<path d="M736.779 191.406C736.565 263.384 680.276 317.34 606.47 317.873C541.956 318.3 478.083 259.758 479.258 188.847C480.433 121.242 538.752 61.1008 605.081 60.9941C679.421 60.9941 736.992 117.936 736.779 191.406ZM678.567 190.127C678.78 150.779 647.592 119.322 608.285 119.003C570.688 118.683 537.897 151.312 537.684 189.167C537.363 227.022 569.62 259.438 607.858 259.758C646.524 259.971 678.46 228.621 678.567 190.233V190.127Z" fill="#0061FF"/>
<path d="M-0.000641089 158.137C-0.000641089 116.124 -0.107452 74.1106 0.10617 32.0971C0.319791 8.53122 17.9435 -4.90455 39.0921 1.7067C48.705 4.69243 55.0068 10.8772 57.4635 20.794C59.2793 28.2583 60.0269 35.7227 60.0269 43.4002C60.0269 77.5228 60.0269 111.539 60.0269 145.661C60.0269 158.031 60.2406 158.777 72.951 157.924C83.2049 157.284 90.6816 160.59 97.3038 168.268C116.209 190.447 133.726 213.693 151.67 236.619C175.703 267.33 199.842 298.04 223.981 328.75C230.817 337.388 234.876 346.878 231.672 358.181C225.37 381.001 199.735 388.678 183.286 371.724C170.896 358.928 160.322 344.319 149.214 330.35C123.366 297.614 97.6243 264.877 71.7761 232.034C70.3876 230.221 68.8922 228.409 67.2901 226.703C66.0083 225.21 64.513 223.184 62.4836 223.823C59.7065 224.676 60.1338 227.556 60.1338 229.795C60.1338 246.323 60.1338 262.851 60.0269 279.379C60.0269 284.284 59.8133 289.296 58.7452 294.201C55.4341 309.983 45.7143 317.767 30.2268 317.661C14.846 317.447 3.84454 308.383 1.28109 293.028C0.319791 287.163 0.10617 281.192 0.10617 275.221C0.10617 236.193 0.10617 197.165 0.10617 158.137H-0.000641089Z" fill="#0061FF"/>
<path d="M877.451 218.385C866.557 218.385 855.555 217.745 844.66 218.491C806.102 220.944 769.359 177.651 768.718 142.995C767.97 103.114 805.568 56.6222 853.205 61.1007C865.061 62.1671 877.131 61.1007 888.88 62.2737C903.513 63.8732 912.912 74.8564 913.446 88.932C913.874 101.835 904.581 113.671 891.23 117.083C880.122 119.962 868.8 118.683 857.584 119.003C853.312 119.003 848.933 118.789 844.66 119.429C834.513 120.922 827.143 128.813 826.396 138.73C825.648 147.58 832.057 156.964 841.029 160.163C845.728 161.869 850.749 162.189 855.769 162.189C876.597 162.189 897.532 161.869 918.36 162.189C952.219 162.829 977.746 177.224 991.525 208.894C1004.88 239.498 1000.5 267.862 977.96 292.708C964.075 308.063 946.344 316.7 925.623 317.767C912.378 318.406 899.134 318.086 885.889 317.767C868.693 317.447 857.371 305.61 857.478 288.656C857.478 272.874 868.479 262.211 885.676 261.571C896.25 261.144 906.931 261.997 917.505 261.144C937.158 259.652 946.985 242.697 937.158 227.982C932.459 220.837 925.196 218.811 917.292 218.598C904.047 218.385 890.803 218.598 877.558 218.598L877.451 218.385Z" fill="#0061FF"/>
<path d="M93.3521 127.213C92.9249 121.988 94.8475 116.87 97.945 111.965C109.908 93.304 121.764 74.6432 135.222 57.1554C146.437 42.5466 162.993 39.1344 176.13 48.4114C189.695 57.9018 192.472 75.1763 182.859 90.5315C170.897 109.512 158.613 128.386 144.514 145.874C136.076 156.324 123.793 159.31 111.51 154.831C100.295 150.779 93.5658 140.756 93.459 127.213H93.3521Z" fill="#0061FF"/>
<path d="M941.11 112.711C941.323 97.4627 954.674 85.3065 970.91 85.7331C986.718 86.1596 998.894 99.0622 998.36 115.057C997.933 129.026 984.154 142.568 970.376 142.462C953.393 142.462 940.789 129.666 941.003 112.711H941.11Z" fill="#0061FF"/>
<path d="M797.984 291.855C781.535 291.855 769.893 280.338 769.786 264.024C769.679 249.521 783.03 236.086 797.45 236.086C812.724 236.086 825.755 249.202 825.968 264.557C826.075 279.592 813.578 291.961 798.091 291.855H797.984Z" fill="#0061FF"/>
</g>
<defs>
<clipPath id="clip0_211_424">
<rect width="999" height="381" fill="white"/>
</clipPath>
</defs>
</svg>
